<svg width="158" height="32" viewBox="0 0 158 32" fill="none" xmlns="http://www.w3.org/2000/svg">
<path d="M17.5804 14.5466C17.5804 14.5466 17.0847 7.63349 12.4144 4.63692C7.74409 1.64036 0.606445 4.15064 0.606445 4.15064C2.76536 4.74207 6.21302 14.586 7.77714 16.7283C10.9935 21.1312 17.5804 14.5466 17.5804 14.5466Z" fill="#1B7E3F"/>
<path d="M10.6629 18.9886C9.44025 18.9886 8.27268 18.5154 7.32539 17.2143C6.71957 16.3863 5.91549 14.6252 4.99024 12.6012C3.6354 9.64402 1.59765 5.17546 0.474128 4.87317C0.20977 4.79432 0.0115034 4.51832 0.000488514 4.18975C-0.0105264 3.86118 0.165708 3.57204 0.430065 3.46689C0.727468 3.36175 7.86512 0.917183 12.6896 4.01889C17.5913 7.16003 18.153 14.2046 18.1751 14.5069C18.1971 14.7434 18.109 14.9669 17.9658 15.1246C17.7565 15.3217 14.0335 18.9886 10.6629 18.9886ZM2.0823 4.47889C3.23886 5.87203 4.51659 8.54002 6.04766 11.9046C6.90682 13.784 7.72193 15.5583 8.23963 16.268C10.707 19.6457 15.7408 15.348 16.9414 14.2572C16.7541 12.8246 15.8399 7.68574 12.1279 5.29375C8.88951 3.20404 4.29629 3.94003 2.0823 4.47889Z" fill="#12542A"/>
<path d="M15.7958 12.4167C15.7958 12.4167 9.97995 12.1801 6.92882 17.3584C3.87769 22.5235 5.11136 31.2898 5.11136 31.2898C5.11136 31.2898 13.5378 29.0029 16.4347 24.2978C19.3316 19.5927 15.7958 12.4167 15.7958 12.4167Z" fill="#24A854"/>
<path d="M9.31932 17.3453C11.1368 14.2567 13.9456 13.1001 15.9062 12.6664C15.8291 12.4956 15.7851 12.4167 15.7851 12.4167C15.7851 12.4167 9.9692 12.1801 6.91808 17.3584C3.86695 22.5235 5.10062 31.2898 5.10062 31.2898C5.10062 31.2898 6.0479 31.0269 7.41375 30.5144C7.19345 28.2538 6.81894 21.5904 9.31932 17.3453Z" fill="#166934"/>
<path d="M15.8511 12.4168C15.8511 12.4168 18.6158 7.80366 22.9337 8.02709C27.2625 8.23737 31.3931 13.5471 31.3931 13.5471C31.3931 13.5471 25.9628 18.9093 21.9643 18.8173C17.9769 18.7253 15.8511 12.4168 15.8511 12.4168Z" fill="#24A854"/>
<path d="M5.1004 32.0001C4.97923 32.0001 4.86908 31.9607 4.75893 31.8818C4.61574 31.7767 4.52762 31.5927 4.49458 31.3956C4.4395 31.0276 3.26091 22.2876 6.42219 16.9384C9.62752 11.5105 15.5535 11.6813 15.8069 11.6945C16.0162 11.7076 16.2034 11.839 16.3136 12.0493C16.4678 12.3647 20.0256 19.6853 16.9194 24.719C13.9123 29.5818 5.59607 31.895 5.24359 31.987C5.19953 32.0001 5.15547 32.0001 5.1004 32.0001ZM15.4324 13.1402C14.1877 13.1927 9.8368 13.679 7.42454 17.7664C5.06735 21.7619 5.40882 28.1624 5.6181 30.3704C7.6118 29.7264 13.659 27.5447 15.939 23.8516C18.2191 20.1716 16.0712 14.599 15.4324 13.1402Z" fill="#12542A"/>
<path d="M22.0743 19.5409C22.0412 19.5409 21.9972 19.5409 21.9641 19.5409C17.6133 19.4357 15.3772 12.9695 15.2891 12.6935C15.212 12.47 15.234 12.2072 15.3552 11.9969C15.4764 11.7998 18.3623 7.06834 22.9555 7.30491C27.4716 7.52834 31.6573 12.8249 31.8335 13.0483C31.9436 13.1929 32.0097 13.39 31.9987 13.5872C31.9877 13.7843 31.9106 13.9683 31.7784 14.0997C31.5581 14.3232 26.2379 19.5409 22.0743 19.5409ZM16.5558 12.5226C17.0735 13.8237 18.9791 18.0163 21.9862 18.0952C25.0153 18.1609 29.0577 14.77 30.4897 13.482C29.3111 12.1546 26.1278 8.90833 22.9114 8.75062C19.607 8.57976 17.2498 11.5369 16.5558 12.5226Z" fill="#12542A"/>
<path d="M23.6274 13.6659C23.5943 13.6659 23.5503 13.6659 23.5172 13.6527C21.3583 13.1796 16.1482 13.6527 16.0932 13.6659C15.7627 13.6921 15.4653 13.403 15.4433 12.9956C15.4213 12.6013 15.6636 12.2464 16.005 12.2201C16.2253 12.1939 21.4244 11.7207 23.7375 12.2333C24.068 12.299 24.2882 12.6801 24.2222 13.0744C24.1671 13.4293 23.9137 13.6659 23.6274 13.6659Z" fill="#12542A"/>
<path d="M11.6763 20.9859C11.5662 20.9859 11.456 20.9464 11.3569 20.8807C11.0705 20.6704 10.9824 20.2236 11.1586 19.8819L15.0358 12.3379C15.2121 11.9962 15.5866 11.891 15.873 12.1013C16.1594 12.3116 16.2475 12.7584 16.0712 13.1002L12.194 20.6441C12.0728 20.8676 11.8746 20.9859 11.6763 20.9859Z" fill="#12542A"/>
<path d="M13.615 13.1402C13.4608 13.1402 13.3176 13.0745 13.1964 12.9431C12.5355 12.1939 9.51742 10.3802 7.65591 9.35508C7.34749 9.18422 7.21531 8.76365 7.3585 8.39566C7.5017 8.02766 7.85417 7.86994 8.16259 8.0408C8.65826 8.3168 13.0202 10.7351 14.0335 11.9048C14.2759 12.1808 14.2869 12.6408 14.0556 12.9299C13.9344 13.0614 13.7692 13.1402 13.615 13.1402Z" fill="#12542A"/>
<path d="M15.6527 12.43C15.6527 12.43 12.2491 12.1803 10.7181 8.96028C9.18699 5.74029 10.3105 0.719727 10.3105 0.719727C10.3105 0.719727 15.113 2.62544 16.589 5.55629C18.054 8.48714 15.6527 12.43 15.6527 12.43Z" fill="#24A854"/>
<path d="M12.7887 8.96028C11.6542 6.59457 11.9736 3.24315 12.2159 1.63972C11.1475 1.0483 10.3104 0.719727 10.3104 0.719727C10.3104 0.719727 9.17583 5.74029 10.7179 8.96028C12.249 12.1803 15.6526 12.43 15.6526 12.43C15.6526 12.43 15.7627 12.246 15.9169 11.9437C14.8595 11.4837 13.5708 10.6163 12.7887 8.96028Z" fill="#166934"/>
<path d="M15.6525 13.153C15.6415 13.153 15.6305 13.153 15.6195 13.153C15.4652 13.1399 11.8744 12.8376 10.2001 9.31534C8.55891 5.87192 9.68242 0.746217 9.7375 0.535932C9.78156 0.338789 9.89171 0.181074 10.0349 0.0890744C10.1781 -0.00292533 10.3543 -0.0292102 10.5085 0.0365039C10.7178 0.115361 15.5423 2.0605 17.1065 5.18849C18.7697 8.50048 16.2473 12.6799 16.1482 12.8639C16.027 13.0479 15.8508 13.153 15.6525 13.153ZM10.7619 1.6925C10.5306 3.1645 10.2001 6.39763 11.2465 8.60563C12.337 10.8925 14.518 11.5102 15.3551 11.6679C15.8508 10.7085 17.0844 7.96163 16.0711 5.93763C15.0246 3.86106 12.0616 2.29707 10.7619 1.6925Z" fill="#12542A"/>
<path d="M15.6528 13.1532C15.4325 13.1532 15.2232 13.0086 15.113 12.7589L12.9431 7.71203C12.7889 7.35717 12.9101 6.92346 13.2075 6.73946C13.5049 6.55546 13.8684 6.70003 14.0226 7.05489L16.1925 12.1017C16.3467 12.4566 16.2255 12.8903 15.9281 13.0743C15.84 13.1269 15.7519 13.1532 15.6528 13.1532Z" fill="#12542A"/>
<path d="M39.8959 9.7754C40.3082 8.9222 41.0832 8.4956 42.2208 8.4956C43.3727 8.4956 44.2116 8.82977 44.7378 9.49811C45.2781 10.1522 45.5483 11.2401 45.5483 12.7616V20.3764L50.7315 8.94353H53.2698L46.6361 23H41.6449L41.005 12.7616C40.9624 12.0079 40.8344 11.3751 40.6211 10.8632C40.422 10.3513 40.1803 9.9887 39.8959 9.7754ZM58.9535 17.0063C59.4655 16.0962 59.7214 15.179 59.7214 14.2547C59.7214 13.6432 59.501 13.3375 59.0602 13.3375C58.7189 13.3375 58.3705 13.629 58.015 14.212C57.6453 14.7951 57.4036 15.4634 57.2898 16.2171L56.1806 23L51.7653 23.4266L53.941 12.1217L57.4604 11.6951L57.0765 13.8494C57.7733 12.4132 58.9038 11.6951 60.468 11.6951C61.2927 11.6951 61.9255 11.9084 62.3663 12.335C62.8214 12.7616 63.0489 13.4157 63.0489 14.2974C63.0489 15.1648 62.7574 15.8758 62.1744 16.4304C61.6056 16.9849 60.8306 17.2622 59.8494 17.2622C59.4228 17.2622 59.1242 17.1769 58.9535 17.0063ZM72.0392 19.3952C72.3947 19.637 72.5724 20.028 72.5724 20.5684C72.5724 21.0945 72.4373 21.5282 72.1672 21.8695C71.897 22.2108 71.5415 22.4952 71.1007 22.7227C70.1906 23.192 69.2449 23.4266 68.2638 23.4266C67.2826 23.4266 66.5005 23.32 65.9175 23.1067C65.3487 22.8933 64.8723 22.5876 64.4884 22.1895C63.7347 21.4358 63.3579 20.3693 63.3579 18.99C63.3579 16.8427 63.9409 15.115 65.1069 13.8068C66.3583 12.399 68.0718 11.6951 70.2475 11.6951C71.5984 11.6951 72.608 11.9795 73.2763 12.5483C73.774 12.9749 74.0229 13.5366 74.0229 14.2334C74.0229 16.7361 71.8614 17.9874 67.5385 17.9874C67.4817 18.3572 67.4532 18.6984 67.4532 19.0113C67.4532 19.6654 67.5954 20.1204 67.8798 20.3764C68.1784 20.6181 68.5979 20.739 69.1383 20.739C69.6787 20.739 70.2332 20.6181 70.802 20.3764C71.3851 20.1204 71.7974 19.7934 72.0392 19.3952ZM67.6879 17.0703C68.6975 17.0703 69.4938 16.7574 70.0768 16.1317C70.6598 15.5345 70.9513 14.7595 70.9513 13.8068C70.9513 13.4797 70.8874 13.2309 70.7594 13.0602C70.6456 12.8754 70.4679 12.7829 70.2261 12.7829C69.9844 12.7829 69.7569 12.8327 69.5436 12.9322C69.3445 13.0176 69.1383 13.2166 68.925 13.5295C68.3989 14.2405 67.9865 15.4207 67.6879 17.0703ZM75.6701 22.3601C75.343 21.9904 75.1013 21.514 74.9449 20.931C74.8027 20.348 74.7316 19.5801 74.7316 18.6273C74.7316 17.6746 74.8951 16.7645 75.2222 15.8971C75.5492 15.0297 76.0114 14.2831 76.6086 13.6575C77.8315 12.3492 79.4526 11.6951 81.4719 11.6951C82.1971 11.6951 82.8228 11.816 83.3489 12.0577L86.9963 11.6951L85.4179 20.0138C85.3753 20.1844 85.3539 20.4262 85.3539 20.739C85.3539 21.0519 85.4464 21.3078 85.6312 21.5069C85.8303 21.706 86.072 21.8197 86.3564 21.8482C86.2142 22.3317 85.8801 22.7156 85.3539 23C84.842 23.2844 84.2945 23.4266 83.7115 23.4266C83.1285 23.4266 82.6379 23.3128 82.2397 23.0853C81.8558 22.872 81.607 22.5805 81.4932 22.2108C81.2657 22.5663 80.9102 22.8578 80.4267 23.0853C79.9432 23.3128 79.3744 23.4266 78.7203 23.4266C78.0804 23.4266 77.4974 23.3413 76.9712 23.1706C76.4451 23 76.0114 22.7298 75.6701 22.3601ZM80.1707 13.7001C80.0143 13.9561 79.865 14.3045 79.7228 14.7453C79.5806 15.1719 79.3886 15.9682 79.1469 17.1342C78.9194 18.2861 78.8056 19.2744 78.8056 20.0991C78.8056 20.9239 78.8696 21.4571 78.9976 21.6989C79.1256 21.9406 79.3033 22.0615 79.5308 22.0615C79.9859 22.0615 80.3769 21.8482 80.704 21.4216C81.0453 20.9808 81.2799 20.3764 81.4079 19.6085L82.5384 13.3588C82.2397 13.1029 81.9127 12.9749 81.5572 12.9749C81.2159 12.9749 80.9386 13.0318 80.7253 13.1455C80.5262 13.2593 80.3414 13.4442 80.1707 13.7001ZM94.9936 22.1041C94.311 22.9858 93.1237 23.4266 91.4315 23.4266C90.5498 23.4266 89.7891 23.1635 89.1492 22.6374C88.5093 22.097 88.1893 21.4429 88.1893 20.675C88.1893 20.2484 88.2106 19.9285 88.2533 19.7152L89.6824 12.1217L94.0124 11.6951L92.4553 19.9285C92.3984 20.2413 92.37 20.4902 92.37 20.675C92.37 21.4998 92.6188 21.9122 93.1165 21.9122C93.6711 21.9122 94.1475 21.5353 94.5457 20.7817C94.6736 20.5399 94.7661 20.2626 94.8229 19.9498L96.3374 12.1217L100.539 11.6951L98.961 20.0138C98.9183 20.2271 98.897 20.4475 98.897 20.675C98.897 20.9025 98.961 21.1443 99.0889 21.4002C99.2169 21.642 99.4871 21.7913 99.8995 21.8482C99.8142 22.1895 99.6222 22.4739 99.3236 22.7014C98.6979 23.1849 98.0438 23.4266 97.3612 23.4266C96.6929 23.4266 96.1596 23.3057 95.7615 23.064C95.3633 22.8222 95.1073 22.5023 94.9936 22.1041ZM117.216 18.5847C117.585 18.8549 117.77 19.2815 117.77 19.8645C117.77 20.4333 117.642 20.9239 117.386 21.3363C117.145 21.7344 116.782 22.0899 116.298 22.4028C115.26 23.0711 113.831 23.4053 112.011 23.4053C110.205 23.4053 108.804 22.936 107.809 21.9975C106.828 21.0447 106.337 19.7294 106.337 18.0514C106.337 15.6767 106.956 13.5864 108.193 11.7804C109.132 10.4437 110.44 9.491 112.118 8.9222C112.985 8.6378 113.845 8.4956 114.699 8.4956C115.552 8.4956 116.242 8.55248 116.768 8.66624C117.294 8.78 117.756 8.95064 118.154 9.17816C119.022 9.67586 119.455 10.3229 119.455 11.1192C119.455 11.8444 119.114 12.4772 118.431 13.0176C117.806 13.501 117.237 13.7428 116.725 13.7428C116.213 13.7428 115.85 13.7072 115.637 13.6361C115.694 13.1242 115.723 12.7047 115.723 12.3777C115.723 12.0364 115.715 11.7449 115.701 11.5031C115.687 11.2614 115.644 11.0268 115.573 10.7992C115.431 10.2731 115.139 10.01 114.699 10.01C114.272 10.01 113.838 10.2162 113.398 10.6286C112.971 11.0268 112.573 11.5671 112.203 12.2497C111.364 13.7997 110.945 15.4918 110.945 17.3262C110.945 18.2079 111.193 18.9046 111.691 19.4166C112.189 19.9143 112.971 20.1631 114.037 20.1631C114.834 20.1631 115.609 19.9 116.362 19.3739C116.689 19.1464 116.974 18.8833 117.216 18.5847ZM128.176 19.3952C128.532 19.637 128.709 20.028 128.709 20.5684C128.709 21.0945 128.574 21.5282 128.304 21.8695C128.034 22.2108 127.679 22.4952 127.238 22.7227C126.328 23.192 125.382 23.4266 124.401 23.4266C123.42 23.4266 122.638 23.32 122.055 23.1067C121.486 22.8933 121.009 22.5876 120.625 22.1895C119.872 21.4358 119.495 20.3693 119.495 18.99C119.495 16.8427 120.078 15.115 121.244 13.8068C122.495 12.399 124.209 11.6951 126.385 11.6951C127.735 11.6951 128.745 11.9795 129.413 12.5483C129.911 12.9749 130.16 13.5366 130.16 14.2334C130.16 16.7361 127.998 17.9874 123.676 17.9874C123.619 18.3572 123.59 18.6984 123.59 19.0113C123.59 19.6654 123.732 20.1204 124.017 20.3764C124.316 20.6181 124.735 20.739 125.275 20.739C125.816 20.739 126.37 20.6181 126.939 20.3764C127.522 20.1204 127.934 19.7934 128.176 19.3952ZM123.825 17.0703C124.835 17.0703 125.631 16.7574 126.214 16.1317C126.797 15.5345 127.088 14.7595 127.088 13.8068C127.088 13.4797 127.024 13.2309 126.896 13.0602C126.783 12.8754 126.605 12.7829 126.363 12.7829C126.121 12.7829 125.894 12.8327 125.681 12.9322C125.482 13.0176 125.275 13.2166 125.062 13.5295C124.536 14.2405 124.124 15.4207 123.825 17.0703ZM131.807 22.3601C131.48 21.9904 131.238 21.514 131.082 20.931C130.94 20.348 130.869 19.5801 130.869 18.6273C130.869 17.6746 131.032 16.7645 131.359 15.8971C131.686 15.0297 132.148 14.2831 132.746 13.6575C133.969 12.3492 135.59 11.6951 137.609 11.6951C138.334 11.6951 138.96 11.816 139.486 12.0577L143.133 11.6951L141.555 20.0138C141.512 20.1844 141.491 20.4262 141.491 20.739C141.491 21.0519 141.583 21.3078 141.768 21.5069C141.967 21.706 142.209 21.8197 142.493 21.8482C142.351 22.3317 142.017 22.7156 141.491 23C140.979 23.2844 140.432 23.4266 139.849 23.4266C139.266 23.4266 138.775 23.3128 138.377 23.0853C137.993 22.872 137.744 22.5805 137.63 22.2108C137.403 22.5663 137.047 22.8578 136.564 23.0853C136.08 23.3128 135.511 23.4266 134.857 23.4266C134.217 23.4266 133.634 23.3413 133.108 23.1706C132.582 23 132.148 22.7298 131.807 22.3601ZM136.308 13.7001C136.151 13.9561 136.002 14.3045 135.86 14.7453C135.718 15.1719 135.526 15.9682 135.284 17.1342C135.056 18.2861 134.943 19.2744 134.943 20.0991C134.943 20.9239 135.007 21.4571 135.135 21.6989C135.263 21.9406 135.44 22.0615 135.668 22.0615C136.123 22.0615 136.514 21.8482 136.841 21.4216C137.182 20.9808 137.417 20.3764 137.545 19.6085L138.675 13.3588C138.377 13.1029 138.05 12.9749 137.694 12.9749C137.353 12.9749 137.076 13.0318 136.862 13.1455C136.663 13.2593 136.478 13.4442 136.308 13.7001ZM149.403 21.8268C148.962 22.8933 148.038 23.4266 146.63 23.4266C145.905 23.4266 145.315 23.1778 144.86 22.68C144.476 22.2392 144.284 21.7984 144.284 21.3576C144.284 20.2058 144.547 18.5065 145.073 16.2597L145.862 12.1217L150.192 11.6951L148.891 18.4354C148.649 19.4877 148.528 20.1987 148.528 20.5684C148.528 21.3789 148.82 21.7984 149.403 21.8268ZM146.246 9.15683C146.246 8.60225 146.474 8.17565 146.929 7.87703C147.398 7.57841 147.967 7.4291 148.635 7.4291C149.303 7.4291 149.837 7.57841 150.235 7.87703C150.647 8.17565 150.853 8.60225 150.853 9.15683C150.853 9.71141 150.626 10.1309 150.171 10.4153C149.73 10.6997 149.175 10.8419 148.507 10.8419C147.839 10.8419 147.291 10.6997 146.865 10.4153C146.452 10.1309 146.246 9.71141 146.246 9.15683ZM150.644 21.7415C150.644 21.2012 150.843 20.7888 151.241 20.5044C151.654 20.2058 152.159 20.0565 152.756 20.0565C153.353 20.0565 153.837 20.2058 154.206 20.5044C154.59 20.7888 154.782 21.2012 154.782 21.7415C154.782 22.2819 154.569 22.7014 154.142 23C153.73 23.2986 153.225 23.4479 152.628 23.4479C152.031 23.4479 151.547 23.2986 151.177 23C150.822 22.7014 150.644 22.2819 150.644 21.7415ZM151.796 17.7315C151.796 17.6319 151.81 17.5111 151.839 17.3689L153.502 8.79422C154.029 8.59514 154.604 8.4956 155.23 8.4956C155.856 8.4956 156.332 8.69468 156.659 9.09284C156.986 9.491 157.15 9.9887 157.15 10.5859C157.15 11.169 157.036 11.7946 156.809 12.463C156.581 13.1171 156.325 13.7783 156.041 14.4467C155.771 15.115 155.515 15.7976 155.273 16.4943C155.045 17.1769 154.924 17.8808 154.91 18.606C154.583 18.9757 154.135 19.1606 153.566 19.1606C152.998 19.1606 152.557 19.0326 152.244 18.7767C151.945 18.5065 151.796 18.1581 151.796 17.7315Z" fill="#F2F2F2"/>
</svg>
