<svg viewBox="0 0 32 32" fill="none" xmlns="http://www.w3.org/2000/svg">
<path d="M17.5804 14.5466C17.5804 14.5466 17.0847 7.63349 12.4144 4.63692C7.74409 1.64036 0.606445 4.15064 0.606445 4.15064C2.76536 4.74207 6.21302 14.586 7.77714 16.7283C10.9935 21.1312 17.5804 14.5466 17.5804 14.5466Z" fill="#1B7E3F"/>
<path d="M10.6629 18.9886C9.44025 18.9886 8.27268 18.5154 7.32539 17.2143C6.71957 16.3863 5.91549 14.6252 4.99024 12.6012C3.6354 9.64402 1.59765 5.17546 0.474128 4.87317C0.20977 4.79432 0.0115034 4.51832 0.000488514 4.18975C-0.0105264 3.86118 0.165708 3.57204 0.430065 3.46689C0.727468 3.36175 7.86512 0.917183 12.6896 4.01889C17.5913 7.16003 18.153 14.2046 18.1751 14.5069C18.1971 14.7434 18.109 14.9669 17.9658 15.1246C17.7565 15.3217 14.0335 18.9886 10.6629 18.9886ZM2.0823 4.47889C3.23886 5.87203 4.51659 8.54002 6.04766 11.9046C6.90682 13.784 7.72193 15.5583 8.23963 16.268C10.707 19.6457 15.7408 15.348 16.9414 14.2572C16.7541 12.8246 15.8399 7.68574 12.1279 5.29375C8.88951 3.20404 4.29629 3.94003 2.0823 4.47889Z" fill="#12542A"/>
<path d="M15.7958 12.4167C15.7958 12.4167 9.97995 12.1801 6.92882 17.3584C3.87769 22.5235 5.11136 31.2898 5.11136 31.2898C5.11136 31.2898 13.5378 29.0029 16.4347 24.2978C19.3316 19.5927 15.7958 12.4167 15.7958 12.4167Z" fill="#24A854"/>
<path d="M9.31932 17.3453C11.1368 14.2567 13.9456 13.1001 15.9062 12.6664C15.8291 12.4956 15.7851 12.4167 15.7851 12.4167C15.7851 12.4167 9.9692 12.1801 6.91808 17.3584C3.86695 22.5235 5.10062 31.2898 5.10062 31.2898C5.10062 31.2898 6.0479 31.0269 7.41375 30.5144C7.19345 28.2538 6.81894 21.5904 9.31932 17.3453Z" fill="#166934"/>
<path d="M15.8511 12.4168C15.8511 12.4168 18.6158 7.80366 22.9337 8.02709C27.2625 8.23737 31.3931 13.5471 31.3931 13.5471C31.3931 13.5471 25.9628 18.9093 21.9643 18.8173C17.9769 18.7253 15.8511 12.4168 15.8511 12.4168Z" fill="#24A854"/>
<path d="M5.1004 32.0001C4.97923 32.0001 4.86908 31.9607 4.75893 31.8818C4.61574 31.7767 4.52762 31.5927 4.49458 31.3956C4.4395 31.0276 3.26091 22.2876 6.42219 16.9384C9.62752 11.5105 15.5535 11.6813 15.8069 11.6945C16.0162 11.7076 16.2034 11.839 16.3136 12.0493C16.4678 12.3647 20.0256 19.6853 16.9194 24.719C13.9123 29.5818 5.59607 31.895 5.24359 31.987C5.19953 32.0001 5.15547 32.0001 5.1004 32.0001ZM15.4324 13.1402C14.1877 13.1927 9.8368 13.679 7.42454 17.7664C5.06735 21.7619 5.40882 28.1624 5.6181 30.3704C7.6118 29.7264 13.659 27.5447 15.939 23.8516C18.2191 20.1716 16.0712 14.599 15.4324 13.1402Z" fill="#12542A"/>
<path d="M22.0743 19.5409C22.0412 19.5409 21.9972 19.5409 21.9641 19.5409C17.6133 19.4357 15.3772 12.9695 15.2891 12.6935C15.212 12.47 15.234 12.2072 15.3552 11.9969C15.4764 11.7998 18.3623 7.06834 22.9555 7.30491C27.4716 7.52834 31.6573 12.8249 31.8335 13.0483C31.9436 13.1929 32.0097 13.39 31.9987 13.5872C31.9877 13.7843 31.9106 13.9683 31.7784 14.0997C31.5581 14.3232 26.2379 19.5409 22.0743 19.5409ZM16.5558 12.5226C17.0735 13.8237 18.9791 18.0163 21.9862 18.0952C25.0153 18.1609 29.0577 14.77 30.4897 13.482C29.3111 12.1546 26.1278 8.90833 22.9114 8.75062C19.607 8.57976 17.2498 11.5369 16.5558 12.5226Z" fill="#12542A"/>
<path d="M23.6274 13.6659C23.5943 13.6659 23.5503 13.6659 23.5172 13.6527C21.3583 13.1796 16.1482 13.6527 16.0932 13.6659C15.7627 13.6921 15.4653 13.403 15.4433 12.9956C15.4213 12.6013 15.6636 12.2464 16.005 12.2201C16.2253 12.1939 21.4244 11.7207 23.7375 12.2333C24.068 12.299 24.2882 12.6801 24.2222 13.0744C24.1671 13.4293 23.9137 13.6659 23.6274 13.6659Z" fill="#12542A"/>
<path d="M11.6763 20.9859C11.5662 20.9859 11.456 20.9464 11.3569 20.8807C11.0705 20.6704 10.9824 20.2236 11.1586 19.8819L15.0358 12.3379C15.2121 11.9962 15.5866 11.891 15.873 12.1013C16.1594 12.3116 16.2475 12.7584 16.0712 13.1002L12.194 20.6441C12.0728 20.8676 11.8746 20.9859 11.6763 20.9859Z" fill="#12542A"/>
<path d="M13.615 13.1402C13.4608 13.1402 13.3176 13.0745 13.1964 12.9431C12.5355 12.1939 9.51742 10.3802 7.65591 9.35508C7.34749 9.18422 7.21531 8.76365 7.3585 8.39566C7.5017 8.02766 7.85417 7.86994 8.16259 8.0408C8.65826 8.3168 13.0202 10.7351 14.0335 11.9048C14.2759 12.1808 14.2869 12.6408 14.0556 12.9299C13.9344 13.0614 13.7692 13.1402 13.615 13.1402Z" fill="#12542A"/>
<path d="M15.6527 12.43C15.6527 12.43 12.2491 12.1803 10.7181 8.96028C9.18699 5.74029 10.3105 0.719727 10.3105 0.719727C10.3105 0.719727 15.113 2.62544 16.589 5.55629C18.054 8.48714 15.6527 12.43 15.6527 12.43Z" fill="#24A854"/>
<path d="M12.7887 8.96028C11.6542 6.59457 11.9736 3.24315 12.2159 1.63972C11.1475 1.0483 10.3104 0.719727 10.3104 0.719727C10.3104 0.719727 9.17583 5.74029 10.7179 8.96028C12.249 12.1803 15.6526 12.43 15.6526 12.43C15.6526 12.43 15.7627 12.246 15.9169 11.9437C14.8595 11.4837 13.5708 10.6163 12.7887 8.96028Z" fill="#166934"/>
<path d="M15.6525 13.153C15.6415 13.153 15.6305 13.153 15.6195 13.153C15.4652 13.1399 11.8744 12.8376 10.2001 9.31534C8.55891 5.87192 9.68242 0.746217 9.7375 0.535932C9.78156 0.338789 9.89171 0.181074 10.0349 0.0890744C10.1781 -0.00292533 10.3543 -0.0292102 10.5085 0.0365039C10.7178 0.115361 15.5423 2.0605 17.1065 5.18849C18.7697 8.50048 16.2473 12.6799 16.1482 12.8639C16.027 13.0479 15.8508 13.153 15.6525 13.153ZM10.7619 1.6925C10.5306 3.1645 10.2001 6.39763 11.2465 8.60563C12.337 10.8925 14.518 11.5102 15.3551 11.6679C15.8508 10.7085 17.0844 7.96163 16.0711 5.93763C15.0246 3.86106 12.0616 2.29707 10.7619 1.6925Z" fill="#12542A"/>
<path d="M15.6528 13.1532C15.4325 13.1532 15.2232 13.0086 15.113 12.7589L12.9431 7.71203C12.7889 7.35717 12.9101 6.92346 13.2075 6.73946C13.5049 6.55546 13.8684 6.70003 14.0226 7.05489L16.1925 12.1017C16.3467 12.4566 16.2255 12.8903 15.9281 13.0743C15.84 13.1269 15.7519 13.1532 15.6528 13.1532Z" fill="#12542A"/>
</svg>
