<svg width="24" height="24" viewBox="0 0 24 24" xmlns="http://www.w3.org/2000/svg">
<path d="M9 20C9 21.11 8.11 22 7 22C5.89 22 5 21.11 5 20C5 18.89 5.9 18 7 18C8.1 18 9 18.9 9 20ZM17 18C15.9 18 15 18.9 15 20C15 21.1 15.9 22 17 22C18.1 22 19 21.11 19 20C19 18.89 18.11 18 17 18ZM7.17 14.75L7.2 14.63L8.1 13H15.55C16.3 13 16.96 12.59 17.3 11.97L21.16 4.96003L19.42 4.00003H19.41L18.31 6.00003L15.55 11H8.53L8.4 10.73L6.16 6.00003L5.21 4.00003L4.27 2.00003H1V4.00003H3L6.6 11.59L5.25 14.04C5.09 14.32 5 14.65 5 15C5 16.11 5.9 17 7 17H19V15H7.42C7.29 15 7.17 14.89 7.17 14.75ZM18 2.76003L16.59 1.34003L11.75 6.18003L9.16 3.59003L7.75 5.00003L11.75 9.00003L18 2.76003Z" fill="currentColor"/>
</svg>
