<svg width="24" height="24" viewBox="0 0 24 24" xmlns="http://www.w3.org/2000/svg">
<path d="M13.59 9.39747L12 7.80747L10.41 9.40497L9.345 8.33997L10.9425 6.74997L9.3525 5.15997L10.41 4.10247L12 5.69247L13.59 4.09497L14.655 5.15997L13.0575 6.74997L14.6475 8.33997L13.59 9.39747ZM8.25 16.5C8.64782 16.5 9.02936 16.658 9.31066 16.9393C9.59196 17.2206 9.75 17.6021 9.75 18C9.75 18.3978 9.59196 18.7793 9.31066 19.0606C9.02936 19.3419 8.64782 19.5 8.25 19.5C7.85218 19.5 7.47064 19.3419 7.18934 19.0606C6.90804 18.7793 6.75 18.3978 6.75 18C6.75 17.6021 6.90804 17.2206 7.18934 16.9393C7.47064 16.658 7.85218 16.5 8.25 16.5ZM15.75 16.5C16.1478 16.5 16.5294 16.658 16.8107 16.9393C17.092 17.2206 17.25 17.6021 17.25 18C17.25 18.3978 17.092 18.7793 16.8107 19.0606C16.5294 19.3419 16.1478 19.5 15.75 19.5C15.3522 19.5 14.9706 19.3419 14.6893 19.0606C14.408 18.7793 14.25 18.3978 14.25 18C14.25 17.6021 14.408 17.2206 14.6893 16.9393C14.9706 16.658 15.3522 16.5 15.75 16.5ZM8.3775 14.0625C8.3775 14.1122 8.39725 14.1599 8.43242 14.1951C8.46758 14.2302 8.51527 14.25 8.565 14.25H17.25V15.75H8.25C7.85218 15.75 7.47064 15.5919 7.18934 15.3106C6.90804 15.0293 6.75 14.6478 6.75 14.25C6.75 13.9875 6.8175 13.74 6.9375 13.53L7.95 11.6925L5.25 5.99997H3.75V4.49997H6.2025L6.9075 5.99997L7.62 7.49997L9.3 11.0475L9.3975 11.25H14.6625L16.7325 7.49997L17.5575 5.99997H17.565L18.87 6.71997L15.975 11.9775C15.72 12.4425 15.225 12.75 14.6625 12.75H9.075L8.4 13.9725L8.3775 14.0625Z" fill="currentColor"/>
</svg>
